<?xml version="1.0" encoding="utf-8"?>
<svg 
    version="1.1"
    xmlns="http://www.w3.org/2000/svg"
    xmlns:xlink="http://www.w3.org/1999/xlink"
    x="0px" y="0px"
    viewBox="0 0 440 72"
>
    <title>Union of Concerned Scientists logo</title>
    <path d="M54.44,52.123c-2.86,1.145-6.073,1.76-10.078,1.76c-9.108,0-15.754-4.928-15.754-14.391 c0-8.141,6.293-14.962,15.71-14.962c2.509,0,5.105,0.528,6.953,1.364l1.496-1.496h1.497l0.615,11.529L52.9,36.016 c-3.125-6.908-5.501-8.933-8.802-8.933c-3.961,0-6.909,3.74-6.909,11.661c0,8.01,3.608,12.367,8.758,12.367 c1.056,0,1.54-0.088,2.64-0.396l5.237-6.953l1.54,0.176L54.44,52.123z"></path>
    <path d="M68.869,53.928c-7.524,0-10.957-5.018-10.957-10.693c0-5.281,4.004-10.65,11.485-10.65c7.525,0,10.958,5.018,10.958,10.65 C80.355,48.514,76.395,53.928,68.869,53.928z M69.134,34.872c-2.729,0-3.873,3.39-3.873,8.362s1.145,8.359,3.873,8.359 c2.728,0,3.872-3.387,3.872-8.359S71.861,34.872,69.134,34.872z"></path>
    <path d="M103.895,50.67l2.641,1.057v1.496H94.917v-1.496l2.024-1.057v-9.812c0-2.332-0.748-3.828-2.948-3.828 c-1.364,0-1.98,0.219-3.301,0.791v12.85l2.024,1.057v1.496H81.1v-1.496l2.64-1.057v-12.98L81.1,35.62V34.3l8.272-1.849 l1.057,0.572l-0.309,3.125l0.616,0.088c2.685-2.465,5.061-3.652,7.525-3.652c3.652,0,5.633,2.376,5.633,5.984V50.67z"></path>
    <path d="M122.462,41.166c-2.156,0-3.477-1.541-3.477-3.873c0-0.748,0.132-1.497,0.308-2.289c-0.044,0-0.088,0-0.132,0 c-3.168,0.176-5.589,3.037-5.589,7.834c0,4.752,2.86,7.041,6.821,7.041c1.54,0,2.729-0.221,4.665-0.836l0.483,1.32 c-2.64,2.463-5.412,3.564-8.537,3.564c-5.677,0-10.562-4.137-10.562-10.254c0-6.072,4.973-11.09,11.662-11.09 c4.62,0,7.613,2.332,7.613,5.148C125.719,39.713,124.398,41.166,122.462,41.166z"></path>
    <path d="M133.772,43.498c0.133,4.4,2.112,6.732,6.117,6.732c2.024,0,3.873-0.264,6.557-1.012l0.528,1.1 c-2.729,2.068-6.381,3.609-9.329,3.609c-6.646,0-10.693-4.137-10.693-10.254c0-6.381,5.412-11.09,10.913-11.09 c7.217,0,9.726,4.928,9.373,10.914H133.772z M140.813,41.297c0-4.621-1.012-6.645-3.256-6.645c-2.156,0-3.608,2.508-3.741,7.129 L140.813,41.297z"></path>
    <path d="M164.332,40.418c-1.761,0-2.948-1.189-3.477-2.686c-1.364,0.572-2.024,1.057-2.948,1.98V50.67l3.036,1.057v1.496h-12.63 v-1.496l2.641-1.057v-12.98l-2.641-2.069V34.3l8.273-1.849l1.056,0.572l-0.572,4.488l0.616,0.09 c1.717-2.949,3.564-5.062,6.47-5.062c2.2,0,3.784,1.497,3.784,3.873C167.94,38.613,166.4,40.418,164.332,40.418z"></path>
    <path d="M191.524,50.67l2.641,1.057v1.496h-11.617v-1.496l2.024-1.057v-9.812c0-2.332-0.749-3.828-2.949-3.828 c-1.364,0-1.979,0.219-3.3,0.791v12.85l2.024,1.057v1.496h-11.618v-1.496l2.641-1.057v-12.98l-2.641-2.069V34.3l8.273-1.849 l1.056,0.572l-0.308,3.125l0.616,0.088c2.685-2.465,5.061-3.652,7.524-3.652c3.653,0,5.633,2.376,5.633,5.984V50.67z"></path>
    <path d="M201.114,43.498c0.132,4.4,2.112,6.732,6.117,6.732c2.023,0,3.872-0.264,6.557-1.012l0.528,1.1 c-2.729,2.068-6.381,3.609-9.33,3.609c-6.645,0-10.693-4.137-10.693-10.254c0-6.381,5.413-11.09,10.914-11.09 c7.217,0,9.725,4.928,9.373,10.914H201.114z M208.155,41.297c0-4.621-1.013-6.645-3.257-6.645c-2.156,0-3.608,2.508-3.74,7.129 L208.155,41.297z"></path>
    <path d="M240.41,50.846v1.32l-8.273,1.893l-1.055-0.572l0.264-2.508l-0.617-0.088l-0.043,0.045 c-1.629,1.539-4.006,2.992-6.558,2.992c-4.269,0-7.791-4.006-7.791-10.078c0-5.941,4.314-11.266,11.751-11.266 c0.881,0,1.805,0.088,2.729,0.264v-6.557l-2.859-2.068v-1.32l8.758-2.289l1.055,0.572v27.592L240.41,50.846z M228.309,49.703 c0.748,0,1.584-0.133,2.508-0.354v-12.32c-0.879-1.453-1.848-2.157-3.477-2.157c-1.892,0-3.652,2.069-3.652,7.614 C223.688,47.502,225.316,49.703,228.309,49.703z"></path>
    <path d="M257.789,53.883c-2.992,0-5.326-0.791-7.129-1.672l-1.189,1.541h-1.76l-0.572-9.902l2.025-0.088 c2.639,6.16,5.367,7.568,8.271,7.568c2.949,0,4.666-1.672,4.666-3.916c0-2.289-1.32-3.256-5.148-4.84 c-1.408-0.572-2.949-1.189-4.312-1.85c-3.125-1.496-4.93-4.004-4.93-7.525c0-4.973,4.092-8.669,9.637-8.669 c2.686,0,4.533,0.66,6.074,1.497l1.232-1.497h1.76l0.748,8.846l-1.98,0.132c-2.332-4.664-4.357-6.425-7.129-6.425 c-2.332,0-3.828,1.32-3.828,3.388c0,1.938,1.055,3.037,4.049,4.401c1.539,0.704,3.387,1.276,5.016,2.069 c3.564,1.715,5.193,4.312,5.193,7.568C268.482,50.055,264.213,53.883,257.789,53.883z"></path>
    <path d="M286.697,41.166c-2.156,0-3.477-1.541-3.477-3.873c0-0.748,0.131-1.497,0.307-2.289c-0.043,0-0.088,0-0.131,0 c-3.168,0.176-5.59,3.037-5.59,7.834c0,4.752,2.861,7.041,6.822,7.041c1.539,0,2.729-0.221,4.664-0.836l0.484,1.32 c-2.641,2.463-5.412,3.564-8.537,3.564c-5.678,0-10.562-4.137-10.562-10.254c0-6.072,4.973-11.09,11.662-11.09 c4.621,0,7.613,2.332,7.613,5.148C289.953,39.713,288.633,41.166,286.697,41.166z"></path>
    <path d="M291.297,35.62V34.3l8.494-1.849l1.055,0.572V50.67l2.641,1.057v1.496h-12.365v-1.496l2.771-1.057v-12.98L291.297,35.62z  M297.457,20.702c2.422,0,4.137,1.76,4.137,4.093c0,2.288-1.803,4.312-4.312,4.312c-2.332,0-4.137-1.717-4.137-4.049 C293.145,22.771,294.994,20.702,297.457,20.702z"></path>
    <path d="M310.898,43.498c0.133,4.4,2.113,6.732,6.117,6.732c2.025,0,3.873-0.264,6.557-1.012l0.529,1.1 c-2.729,2.068-6.381,3.609-9.33,3.609c-6.645,0-10.693-4.137-10.693-10.254c0-6.381,5.412-11.09,10.914-11.09 c7.217,0,9.725,4.928,9.373,10.914H310.898z M317.939,41.297c0-4.621-1.012-6.645-3.256-6.645c-2.156,0-3.607,2.508-3.74,7.129 L317.939,41.297z"></path>
    <path d="M348.234,50.67l2.641,1.057v1.496h-11.617v-1.496l2.023-1.057v-9.812c0-2.332-0.748-3.828-2.947-3.828 c-1.365,0-1.98,0.219-3.301,0.791v12.85l2.023,1.057v1.496h-11.617v-1.496l2.641-1.057v-12.98l-2.641-2.069V34.3l8.273-1.849 l1.057,0.572l-0.309,3.125l0.617,0.088c2.684-2.465,5.061-3.652,7.523-3.652c3.654,0,5.633,2.376,5.633,5.984V50.67z"></path>
    <path d="M359.299,53.928c-3.873,0-5.764-1.674-5.764-5.326V36.588h-3.389v-1.32l4.576-3.652l3.873-4.84h1.893v6.469h6.688v3.344 h-6.688v9.463c0,1.979,0.307,2.947,1.188,3.564c0.881,0.615,1.805,0.748,3.213,0.748c0.703,0,1.539-0.045,2.332-0.088l0.088,1.672 C365.812,52.871,362.16,53.928,359.299,53.928z"></path>
    <path d="M368.596,35.62V34.3l8.492-1.849l1.057,0.572V50.67l2.641,1.057v1.496H368.42v-1.496l2.771-1.057v-12.98L368.596,35.62z  M374.756,20.702c2.42,0,4.137,1.76,4.137,4.093c0,2.288-1.805,4.312-4.312,4.312c-2.332,0-4.137-1.717-4.137-4.049 C370.443,22.771,372.291,20.702,374.756,20.702z"></path>
    <path d="M389.893,53.928c-3.258,0-5.545-0.396-7.57-1.189l-0.131-6.027l1.539-0.09c2.949,4.094,4.445,5.238,6.514,5.238 c1.717,0,2.949-0.836,2.949-2.422c0-1.76-1.365-2.508-4.93-3.916c-3.256-1.275-6.029-2.641-6.029-6.381 c0-3.521,3.213-6.557,8.846-6.557c2.949,0,4.709,0.352,6.162,0.792l0.131,5.456l-1.539,0.178 c-2.289-3.346-3.566-4.357-5.369-4.357c-1.805,0-2.729,1.056-2.729,2.332c0,1.584,1.057,2.244,4.092,3.344 c4.445,1.629,6.91,2.994,6.91,6.471C398.738,51.199,394.908,53.928,389.893,53.928z"></path>
    <path d="M407.932,53.928c-3.873,0-5.766-1.674-5.766-5.326V36.588h-3.389v-1.32l4.578-3.652l3.871-4.84h1.893v6.469h6.689v3.344 h-6.689v9.463c0,1.979,0.309,2.947,1.189,3.564c0.879,0.615,1.803,0.748,3.211,0.748c0.705,0,1.541-0.045,2.334-0.088l0.088,1.672 C414.445,52.871,410.793,53.928,407.932,53.928z"></path>
    <path d="M425.443,53.928c-3.256,0-5.545-0.396-7.568-1.189l-0.133-6.027l1.541-0.09c2.947,4.094,4.443,5.238,6.512,5.238 c1.717,0,2.949-0.836,2.949-2.422c0-1.76-1.365-2.508-4.93-3.916c-3.256-1.275-6.027-2.641-6.027-6.381 c0-3.521,3.211-6.557,8.844-6.557c2.949,0,4.709,0.352,6.162,0.792l0.131,5.456l-1.539,0.178 c-2.289-3.346-3.564-4.357-5.369-4.357s-2.729,1.056-2.729,2.332c0,1.584,1.057,2.244,4.092,3.344 c4.445,1.629,6.91,2.994,6.91,6.471C434.289,51.199,430.461,53.928,425.443,53.928z"></path>
    <path d="M70.184,10.429V9.49h6.04v0.938l-1.979,0.838v8.652c0,3.807-2.462,6.116-6.725,6.116c-4.821,0-7.435-1.954-7.435-6.396 v-8.602l-2.183-0.609V9.49h8.957v0.938l-2.207,0.609v8.779c0,2.843,1.345,4.162,3.73,4.162c2.334,0,3.628-1.599,3.628-4.01v-8.703 L70.184,10.429z"></path>
    <path d="M89.481,24.183l1.522,0.608v0.863h-6.698v-0.863l1.167-0.608v-5.659c0-1.345-0.432-2.207-1.7-2.207 c-0.787,0-1.142,0.126-1.903,0.456v7.41l1.167,0.608v0.863h-6.699v-0.863l1.523-0.608v-7.486l-1.523-1.192v-0.762l4.771-1.065 l0.608,0.33l-0.178,1.802l0.355,0.051c1.548-1.421,2.918-2.106,4.339-2.106c2.106,0,3.248,1.37,3.248,3.451V24.183z"></path>
    <path d="M91.804,15.504v-0.762l4.897-1.065l0.609,0.33v10.176l1.522,0.608v0.863h-7.131v-0.863l1.6-0.608v-7.486L91.804,15.504z  M95.356,6.901c1.396,0,2.386,1.016,2.386,2.36c0,1.319-1.041,2.486-2.487,2.486c-1.345,0-2.385-0.989-2.385-2.334 C92.87,8.095,93.936,6.901,95.356,6.901z"></path>
    <path d="M105.618,26.061c-4.339,0-6.318-2.893-6.318-6.167c0-3.045,2.309-6.141,6.623-6.141c4.339,0,6.318,2.893,6.318,6.141 C112.241,22.938,109.957,26.061,105.618,26.061z M105.771,15.072c-1.573,0-2.233,1.954-2.233,4.821 c0,2.868,0.66,4.821,2.233,4.821s2.232-1.953,2.232-4.821C108.003,17.026,107.344,15.072,105.771,15.072z"></path>
    <path d="M126.121,24.183l1.522,0.608v0.863h-6.698v-0.863l1.167-0.608v-5.659c0-1.345-0.432-2.207-1.7-2.207 c-0.787,0-1.142,0.126-1.903,0.456v7.41l1.167,0.608v0.863h-6.699v-0.863l1.523-0.608v-7.486l-1.523-1.192v-0.762l4.771-1.065 l0.608,0.33l-0.178,1.802l0.355,0.051c1.548-1.421,2.918-2.106,4.339-2.106c2.106,0,3.248,1.37,3.248,3.451V24.183z"></path>
    <path d="M138.986,26.061c-4.339,0-6.318-2.893-6.318-6.167c0-3.045,2.31-6.141,6.623-6.141c4.34,0,6.318,2.893,6.318,6.141 C145.609,22.938,143.326,26.061,138.986,26.061z M139.139,15.072c-1.573,0-2.232,1.954-2.232,4.821 c0,2.868,0.659,4.821,2.232,4.821s2.233-1.953,2.233-4.821C141.372,17.026,140.712,15.072,139.139,15.072z"></path>
    <path d="M152.269,15.986v8.196l1.903,0.608v0.863h-7.436v-0.863l1.522-0.608v-8.196h-2.283v-0.812l2.283-1.142v-0.889 c0-2.512,0.914-4.136,2.665-5.227c1.142-0.711,2.512-1.066,3.882-1.066c2.03,0,3.146,1.092,3.146,2.259 c0,1.065-0.71,1.726-1.7,1.726c-1.142,0-2.055-0.762-2.613-2.513c-0.964,0.609-1.37,1.7-1.37,4.162v1.624h3.172v1.878H152.269z"></path>
    <path d="M5.702,5.928h19.625v3.13h-10.72v53.81h10.72v3.205H5.702V5.928z"></path>
</svg>