<?xml version="1.0" encoding="utf-8"?>
<svg version="1.1" id="Layer_1" xmlns="http://www.w3.org/2000/svg" xmlns:xlink="http://www.w3.org/1999/xlink" x="0px" y="0px"
	 viewBox="0 0 701.5 133.7" style="enable-background:new 0 0 701.5 133.7;" xml:space="preserve">
<style type="text/css">
	.st0{fill:#F18B21;}
</style>
<title>Trevor Project Logo</title>
<path class="st0" d="M358.3,2.4H245V33c-2.5-9.8-8.6-18.2-17.1-23.6c-9.3-6.2-20.4-7.1-34.9-7.1H63.1v29.9h25.6v99.1h33.8V32.3h24.6
	v99.1h33.8V89.8l26.4,41.5h102.4l9.6-26.8L245,80.4V126l-29.7-38.9c15.4-4,25.9-14.6,29.7-29.1v22.3h33.8h44.5l0,0V51.7h-44.6V30.8
	h44.5V2.7l2.1,6.4l22.9,68.6h0.1l29.9-9.3L358.3,2.4z M187.4,62h-6.6V31.4h9.3c15,0,22.1,4.3,22.1,15C212.3,58,204.1,62,187.4,62z
	 M245,80.4L245,80.4h-0.1H245z M634.6,87.1c19.6-5.1,31.2-20.7,31.2-41.6c0-16-6.4-28.1-18.6-36.1c-9.3-6.2-20.4-7.1-35-7.1h-45.8
	v45c-3.6-10.9-9.9-20.6-18.4-28.3C534.6,6.7,516.9-0.1,498.7,0c-19.6,0-36.7,6.3-50.3,18.9c-6.7,6.1-12.1,13.6-15.8,21.9l12.7-38.4
	h-35l-18.6,61.9L428.1,53l-68.4,45.8l25.5,32.6h17.4L429,51.5c-1.1,4.6-1.6,9.3-1.6,14c0,19,6.6,35,19.6,47.9
	c13.6,13.4,31.1,20.3,51.5,20.3c19.2,0,37.5-7.1,50.9-20.1c8-7.6,13.9-17.1,17.1-27.6v45.4h33.8V89.8l26.4,41.5h41.7L634.6,87.1z
	 M498.4,101.9c-19,0-36.3-15.6-36.3-35.9c0-18.9,16.1-33.9,36.7-33.9c19.4,0,35.5,15.1,35.5,33.9
	C534.3,87.1,518.2,101.9,498.4,101.9z M606.7,62h-6.6V31.4h9.3c15,0,22.2,4.3,22.2,15C631.6,58,623.4,62,606.7,62z"/>
<path class="st0" d="M692.5,122v4.5h8.8v4.6h-23.4V122c0-4.8,3.3-7.8,7.3-7.8S692.5,117.2,692.5,122z M682,122.2v4.3h6.4v-4.3
	c0.1-1.8-1.2-3.3-3-3.5s-3.3,1.2-3.5,3C681.9,121.9,681.9,122.1,682,122.2z"/>
<path class="st0" d="M701.3,98.7l-9.3,4.6v3.3h9.3v4.6h-23.5V102c0-4.8,3.3-7.6,7.2-7.6c2.8-0.1,5.3,1.7,6.2,4.3l10.1-5.2
	L701.3,98.7z M682,102.3v4.3h6.2v-4.3c0.1-1.7-1.2-3.2-2.9-3.3c-1.7-0.1-3.2,1.2-3.3,2.9C682,102.1,682,102.2,682,102.3z"/>
<path class="st0" d="M699,76.9c1.7,1.7,2.6,3.9,2.6,6.3c0.1,2.4-0.9,4.7-2.6,6.4c-2.4,2.4-5.3,2.3-9.3,2.3s-7,0.1-9.3-2.3
	c-1.7-1.7-2.6-4-2.6-6.4c-0.1-2.4,0.9-4.7,2.6-6.3c2.4-2.4,5.3-2.3,9.3-2.3S696.6,74.5,699,76.9z M683,80.3
	c-0.8,0.7-1.3,1.8-1.2,2.9c0,1.1,0.4,2.2,1.2,3c1,0.9,2.1,1.1,6.6,1.1s5.6-0.2,6.6-1.1c0.8-0.8,1.3-1.9,1.2-3c0-1.1-0.4-2.2-1.2-2.9
	c-1-0.9-2.1-1.2-6.6-1.2S684,79.4,683,80.3z"/>
<path class="st0" d="M701.5,67.7c0.1,2.3-0.8,4.4-2.4,6l-3-3c0.9-0.7,1.4-1.8,1.3-3c0-2.2-1.3-3.7-4-3.7h-15.6v-4.6h15.7
	C698.8,59.4,701.5,63.3,701.5,67.7z"/>
<path class="st0" d="M701.3,55h-23.5V39.5h4.1v10.9h5.5v-9.3h4.1v9.3h5.7V39.5h4.1L701.3,55z"/>
<path class="st0" d="M701.5,28c0.1,2.4-0.9,4.6-2.5,6.3c-1,1-2.2,1.6-3.5,1.9c-3.9,0.5-7.8,0.5-11.7,0c-1.3-0.3-2.6-0.9-3.5-1.9
	c-1.7-1.7-2.6-3.9-2.6-6.3c0-4.5,2.6-7.8,7.4-8.6V24c-2,0.3-3.4,2-3.3,4c0,1.1,0.4,2.1,1.2,2.9c1,1,2.1,1.1,6.6,1.1s5.6-0.2,6.6-1.1
	c0.8-0.7,1.3-1.8,1.2-2.9c0.1-2-1.4-3.7-3.3-4v-4.6C698.9,20.1,701.5,23.5,701.5,28z"/>
<path class="st0" d="M682,7.8h19.4v4.6H682v6.1h-4.1V1.7h4.1V7.8z"/>
<path class="st0" d="M10.7,6.4v19.4H6.1V6.4H0V2.3h16.8v4.1H10.7z"/>
<path class="st0" d="M32.3,25.7v-9.8h-7.9v9.8h-4.6V2.3h4.6v9.6h7.9V2.3h4.6v23.5H32.3z"/>
<path class="st0" d="M40.3,25.7V2.3h15.5v4.1H44.9v5.5h9.2V16h-9.2v5.7h10.9v4.1L40.3,25.7z"/>
</svg>
