<?xml version="1.0" standalone="no"?><!-- Generator: Gravit.io --><svg xmlns="http://www.w3.org/2000/svg" xmlns:xlink="http://www.w3.org/1999/xlink" style="isolation:isolate" viewBox="0 0 800 418" width="800" height="418"><defs><clipPath id="_clipPath_l5GToKGXWLhgeOeKf2vRbZGqF1YJ3Xpr"><rect width="800" height="418"/></clipPath></defs><g clip-path="url(#_clipPath_l5GToKGXWLhgeOeKf2vRbZGqF1YJ3Xpr)"><g><path d=" M -23.273 336.536 C -25.187 343.021 -27.958 351.941 -30.307 355.37 C -32.656 358.8 -31.22 361.544 -25.891 365.115 C -20.562 368.687 -15.284 368.486 -9.864 369.788 C 3.677 373.042 30.249 383.363 35.687 385.931 C 41.125 388.498 47.853 387.698 49.895 385.86 C 51.938 384.022 55.988 367.975 57.311 363.81 C 58.634 359.646 66.305 337.488 67.816 332.732 C 69.378 327.815 78.001 306.589 72.266 304.956 C 66.532 303.323 56.221 299.647 49.859 298.665 C 43.498 297.682 32.187 293.259 27.882 291.681 C 23.578 290.104 12.308 285.022 8.634 284.694 C 4.961 284.367 -2.303 280.38 -4.351 282.237 C -6.4 284.093 -10.63 296.085 -12.317 301.394 C -14.003 306.702 -20.381 326.773 -23.273 336.536 Z " fill="rgb(0,122,192)"/></g><g transform="matrix(1.208,-0.074,0.074,1.208,352.048,38.487)"><text transform="matrix(1,0,0,1,0,52.5)" style="font-family:'.';font-weight:400;font-size:60px;font-style:normal;fill:#f37444;stroke:none;">Get there safe!</text></g><g transform="matrix(1.208,-0.074,0.074,1.208,391.897,229.217)"><text transform="matrix(1,0,0,1,0,42)" style="font-family:'.';font-weight:400;font-size:48px;font-style:normal;fill:#007ac0;stroke:none;">RVVCFVPP73G</text></g><g transform="matrix(0.998,-0.065,0.065,0.998,385,129.94)"><text transform="matrix(1,0,0,1,0,28)" style="font-family:'.';font-weight:400;font-size:32px;font-style:normal;fill:#737e94;stroke:none;">Grab an Uber and </text><text transform="matrix(1,0,0,1,0,64.438)" style="font-family:'.';font-weight:400;font-size:32px;font-style:normal;fill:#737e94;stroke:none;">use this code:</text></g><g transform="matrix(0.998,-0.065,0.065,0.998,400,319.525)"><text transform="matrix(1,0,0,1,0,28)" style="font-family:'.';font-weight:400;font-size:32px;font-style:normal;fill:#737e94;stroke:none;">$25 valid til </text><text transform="matrix(1,0,0,1,0,64.438)" style="font-family:'.';font-weight:400;font-size:32px;font-style:normal;fill:#737e94;stroke:none;">12pm Sunday May 8</text></g><g><path d=" M 227.654 -18.698 C 224.739 -5.746 215.894 36.735 214.091 40.48 C 212.289 44.226 197.089 89.539 200.796 88.94 C 204.502 88.341 230.331 81.414 238.492 78.363 C 246.652 75.311 301.918 58.093 303.168 55.472 C 304.417 52.851 270.901 24.397 262.973 16.001 C 255.046 7.605 228.453 -22.317 227.654 -18.698 Z " fill="rgb(0,122,192)"/><path d=" M 305.435 60.642 C 304.671 61.5 290.713 66.366 286.512 67.405 C 275.896 70.066 265.46 73.4 255.268 77.386 C 248.944 79.888 228.403 86.539 221.496 88.714 C 214.59 90.888 209.263 92.11 202.716 93.901 C 200.146 94.605 201.572 91.583 204.215 90.807 C 206.857 90.031 219.145 86.674 227.971 83.865 C 236.796 81.055 256.399 75.819 260.17 73.537 C 263.942 71.255 268.108 71.413 271.035 70.687 C 273.963 69.962 290.825 64.446 293.045 63.365 C 295.899 62.068 298.846 60.988 301.863 60.136 C 306.858 58.872 306.586 59.349 305.435 60.642 Z " fill="rgb(0,122,192)"/><path d=" M 275.907 10.385 C 277.976 6.874 280.747 4.284 282.529 5.705 C 284.311 7.126 283.067 12.984 281.147 17.194 C 279.227 21.403 264.398 55.524 263.036 58.343 C 261.674 61.163 254.334 75.034 253.196 75.217 C 252.059 75.401 250.606 74.083 251.788 70.522 C 252.97 66.961 259.979 48.21 262.638 41.425 C 265.298 34.641 273.862 13.821 275.907 10.385 Z " fill="rgb(129,202,156)"/><path d=" M 262.683 13.905 C 265.809 9.116 268.075 4.742 269.791 5.753 C 271.507 6.763 270.71 11.441 269.017 17.805 C 267.325 24.168 256.54 48.079 252.756 55.948 C 248.972 63.816 240.872 79.242 239.699 79.431 C 238.526 79.621 236.326 81.793 238.974 72.556 C 241.622 63.318 254.378 26.644 262.683 13.905 Z " fill="rgb(129,202,156)"/><path d=" M 288.281 13.526 C 291.523 11.245 294.296 14.625 293.846 15.865 C 292.838 20.99 291.254 25.986 289.126 30.757 C 285.316 39.279 280.488 48.736 279.339 52.798 C 278.189 56.859 269.992 71.157 268.638 71.64 C 267.454 72.131 266.093 71.879 265.164 70.998 C 264.364 69.996 267.378 62.348 268.151 59.683 C 268.924 57.019 283.279 17.054 288.281 13.526 Z " fill="rgb(129,202,156)"/></g><g><path d=" M 237 394.839 C 239.072 389.169 244.281 387.591 249.051 385.186 C 253.821 382.78 258.191 379.566 262.758 376.749 C 270.856 371.784 279.04 366.934 287.07 361.864 C 290.709 359.567 294.002 356.764 297.565 354.333 C 299.836 352.769 302.271 351.453 304.696 350.109 C 308.193 348.196 311.825 346.493 315.245 344.447 C 319.09 342.144 322.739 339.589 327.143 338.234 C 329.547 337.232 331.846 335.992 334.003 334.533 C 336.696 333.035 339.562 331.67 342.154 329.966 C 344.416 328.469 346.361 326.503 348.56 324.915 C 349.895 324.066 351.284 323.305 352.717 322.636 C 354.205 321.831 355.683 320.998 357.195 320.217 C 358.267 319.648 359.372 319.132 360.467 318.587 C 360.951 320.023 361.976 321.453 361.918 322.895 C 361.735 325.771 360.642 328.601 360.507 331.477 C 360.265 335.508 360.641 339.522 360.764 343.542 C 360.831 345.118 360.97 346.67 360.984 348.184 C 361.059 354.059 362.409 359.824 361.622 365.845 C 361.056 370.288 362.138 374.928 362.329 379.485 C 362.499 383.121 362.351 386.768 362.501 390.395 C 362.67 395.455 363.184 400.542 363.305 405.649 C 363.413 409.77 363.095 413.906 363.112 418.041 C 363.159 420.28 363.324 422.514 363.607 424.734 C 364.021 428.528 364.56 432.312 364.959 436.11 C 365.37 440.273 365.086 444.606 366.142 448.503 C 367.101 451.969 366.042 453.333 363.301 454.784 C 360.88 456.095 358.679 457.203 355.882 456.067 C 354.04 455.344 352.103 455.005 350.342 454.239 C 348.404 453.343 346.523 452.326 344.712 451.194 C 341.318 449.139 337.938 447.079 334.587 444.866 C 332.668 443.874 330.918 442.586 329.4 441.048 C 327.289 438.386 324.403 438.03 321.535 437.014 C 318.36 436.04 315.431 434.399 312.943 432.2 C 310.708 430.074 307.408 428.963 304.457 427.702 C 300.71 426.07 296.743 424.831 292.92 423.305 C 287.58 421.17 282.392 418.583 276.915 416.846 C 272.064 415.259 267.496 412.912 263.381 409.891 C 262.55 409.276 261.257 409.376 260.264 408.943 C 257.322 407.662 254.462 406.243 251.526 404.978 C 249.824 404.045 247.985 403.39 246.076 403.039 C 243.417 403.004 241.091 401.238 240.342 398.686 C 239.489 397.399 238.417 396.272 237.174 395.356 L 237 394.839 Z  M 355.737 443.149 C 355.111 437.348 354.494 431.336 353.815 425.329 C 353.416 421.818 352.61 418.332 352.532 414.825 C 352.359 405.29 353.629 395.717 351.99 386.1 C 351.146 381.124 352.117 375.84 352.063 370.694 C 352.026 366.549 351.736 362.41 351.46 358.266 C 351.26 355.536 350.715 352.825 350.639 350.084 C 350.551 346.357 350.856 342.609 350.773 338.847 C 350.72 337.266 349.898 336.248 348.171 337.341 C 343.896 340.076 339.692 342.93 335.417 345.665 C 334.381 346.254 333.301 346.762 332.187 347.184 C 329.254 348.278 326.398 349.565 323.636 351.038 C 320.417 353.018 317.555 355.58 314.495 357.842 C 313.924 358.231 313.281 358.502 312.604 358.638 C 309.553 359.194 306.77 360.738 304.683 363.032 C 303.789 363.972 302.76 364.771 301.628 365.404 C 295.19 369.171 288.675 372.851 282.299 376.709 C 279.764 378.25 277.672 380.537 275.161 382.102 C 268.346 386.363 261.405 390.395 254.111 394.754 C 254.867 395.335 255.675 395.844 256.526 396.275 C 259.164 397.273 261.908 398.012 264.489 399.174 C 267.07 400.335 269.117 401.948 271.573 403.072 C 273.493 404.024 275.727 404.248 277.699 405.071 C 281.427 406.645 285.05 408.575 288.85 410.03 C 294.103 412.05 299.503 413.701 304.809 415.64 C 306.609 416.299 308.33 417.156 309.939 418.198 C 312.556 419.891 314.791 422.448 317.627 423.508 C 323.82 425.804 329.74 428.239 334.971 432.521 C 339.15 435.911 344.079 438.44 348.669 441.34 C 350.599 442.608 352.107 445.234 355.737 443.149 Z " fill="rgb(243,116,68)"/><path d=" M 337.419 361.299 C 335.568 359.028 333.553 360.026 329.327 363.192 C 325.646 366.031 329.327 363.192 318.355 369.972 C 307.384 376.752 307.036 379.092 294.242 383.831 C 281.448 388.571 291.155 394.464 298.384 397.13 C 305.614 399.796 308.711 401.919 315.467 405.129 C 320.406 407.427 325.203 410.019 329.833 412.891 C 332.626 414.588 335.046 415.932 338.115 410.422 C 340.893 405.521 337.954 401.586 337.274 395.627 C 336.595 389.669 337.694 382.296 338.024 377.388 C 338.357 371.728 340 370.151 340.928 366.305 C 341.855 362.459 337.419 361.299 337.419 361.299 Z  M 327.29 386.822 C 327.335 388.71 327.368 399.874 327.968 400.184 C 328.568 400.493 322.608 399.271 315.494 395.095 C 313.483 393.869 304.248 390.184 304.248 390.184 C 304.248 390.184 329.115 373.816 329.566 373.872 C 330.016 373.928 327.232 384.939 327.29 386.822 Z " fill="rgb(243,116,68)"/></g><g><path d=" M 91.702 110.639 C 82.194 112.841 82.088 111.478 78.775 112.793 C 74.392 114.148 69.926 115.215 65.404 115.988 C 61.591 116.772 57.722 117.251 53.833 117.422 C 51.997 117.219 40.018 118.38 35.703 120.687 C 31.388 122.994 28.159 123.215 33.824 133.572 C 38.344 141.622 42.222 150.017 45.42 158.678 C 46.68 162.822 57.483 186.449 61.113 187.609 C 64.743 188.769 66.634 187.362 68.768 183.363 C 70.903 179.364 65.523 173.52 59.284 162.106 C 53.044 150.693 54.578 146.206 51.445 140.368 C 49.599 136.993 48.142 133.42 47.103 129.717 C 47.103 129.717 60.274 127.471 63.752 128.188 C 63.752 128.188 75.712 125.296 79.533 124.641 C 84.315 123.594 89.212 123.165 94.103 123.364 C 98.056 123.919 104.878 120.922 102.408 116.132 C 100.577 112.009 96.119 109.721 91.702 110.639 Z " fill="rgb(164,221,235)"/><path d=" M 146.682 55.411 C 143.662 56.247 140.542 56.665 137.408 56.654 C 134.971 56.381 130.993 58.785 124.581 57.529 C 118.169 56.272 104.236 57.084 99.672 56.425 C 95.107 55.766 90.542 53.496 82.693 58.833 C 74.844 64.17 74.698 66.786 76.751 69.549 C 78.803 72.311 84.993 79.865 87.574 84.187 C 90.859 90.211 94.644 95.948 98.889 101.338 C 103.364 106.171 108.959 115.463 111.24 114.625 C 113.52 113.786 115.017 111.086 116.972 109.713 C 120.74 106.974 117.279 103.572 115.662 101.292 C 114.046 99.013 107.489 95.79 103.416 87.811 C 101.354 83.766 99.248 79.281 96.202 76.766 C 93.156 74.251 91.457 69.733 92.264 68.22 C 93.072 66.707 111.103 67.166 117.661 67.889 C 121.925 68.332 132.83 68.404 135.934 69.561 C 139.039 70.718 149.404 68.419 154.025 65.33 C 158.646 62.242 161.335 58.817 158.008 56.152 C 154.681 53.487 150.442 54.612 146.682 55.411 Z " fill="rgb(164,221,235)"/><path d=" M 140.452 83.472 C 143.954 85.341 149.511 99.751 152.698 103.147 C 155.885 106.542 163.799 120.906 166.384 123.036 C 168.969 125.166 170.779 131.298 172.738 134.288 C 175.087 137.848 166.664 138.85 165.053 140.463 C 162.811 142.738 158.128 138.294 148.356 138.493 C 136.75 138.797 133.507 137.899 126.905 139.653 C 124.829 140.211 113.589 141.599 110.68 142.574 C 107.771 143.548 104.28 144.157 99.573 145.116 C 94.867 146.076 91.364 147.956 90.015 142.208 C 88.897 137.695 92.887 135.631 97.471 134.745 C 102.045 133.856 106.693 133.407 111.352 133.405 C 113.681 133.621 117.722 130.89 123.869 130.199 C 130.015 129.508 137.321 126.436 143.583 127.974 C 149.845 129.511 154.272 129.18 155.099 128.566 C 155.927 127.952 151.478 118.439 147.757 114.12 C 144.035 109.8 141.656 105.308 139.842 103.867 C 138.028 102.426 134.903 95.064 132.329 92.913 C 129.756 90.761 129.495 87.816 132.13 87.251 C 136.112 86.294 136.15 81.176 140.452 83.472 Z " fill="rgb(164,221,235)"/><path d=" M 86.501 162.581 C 83.466 163.738 80.496 164.931 80.142 167.519 C 79.788 170.108 82.069 174.992 84.609 178.403 C 87.47 182.463 90.006 186.742 92.193 191.201 C 94.912 196.514 97.294 203.812 98.466 205.466 C 99.639 207.119 102.111 210.189 101.347 210.476 C 100.583 210.762 91.488 210.629 86.548 211.714 C 82.663 212.695 76.192 212.018 70.804 212.225 C 65.416 212.432 64.533 213.878 61.946 218.413 C 59.358 222.948 60.868 224.281 64.134 225.136 C 68.86 225.848 73.666 225.858 78.395 225.166 C 81.259 224.639 89.661 224.875 94.032 223.347 C 98.402 221.819 110.52 225.344 112.114 225.167 C 114.709 224.886 117.728 221.415 119.57 219.37 C 121.14 217.625 120.089 215.536 115.725 208.985 C 111.592 202.977 108.234 196.471 105.73 189.622 C 104.773 185.639 97.739 178.107 96.995 175.182 C 95.37 170.954 93.089 167.009 90.236 163.492 C 89.004 162.001 89.436 161.453 86.501 162.581 Z " fill="rgb(164,221,235)"/><path d=" M 43.299 187.627 C 36.484 189.155 28.052 193.764 21.317 193.891 C 14.583 194.018 11.401 194.153 7.139 196.1 C 2.878 198.047 0.977 196.56 -2.184 200.4 C -5.344 204.24 -7.878 206.749 -3.307 208.8 C 1.265 210.851 9.407 219.17 10.932 221.151 C 12.458 223.132 18.728 231.367 22.034 234.799 C 25.341 238.23 30.741 247.418 33.6 249.972 C 36.458 252.526 41.247 247.249 42.75 243.913 C 44.253 240.577 33.945 232.935 31.002 227.365 C 28.06 221.794 25.997 219.415 21.849 217.09 C 17.702 214.765 15.251 208.013 14.965 206.832 C 14.678 205.652 28.836 204.21 33.179 203.306 C 37.522 202.403 44.905 198.094 45.964 198.66 C 47.024 199.225 54.969 197.662 54.469 193.812 C 53.969 189.961 50.755 185.94 43.299 187.627 Z " fill="rgb(164,221,235)"/></g><g><g><path d=" M 134.56 424.198 C 130.546 424.683 126.711 426.145 123.394 428.457 C 122.059 429.931 116.635 435.733 117.426 441.781 C 118.218 447.83 118.053 451.122 123.901 451.674 C 126.323 451.925 125.974 455.235 132.772 454.166 C 138.471 453.205 146.461 450.704 149.292 446.389 C 152.124 442.074 150.292 437.582 151.768 433.512 C 153.245 429.442 146.629 422.146 142.453 422.123 C 138.277 422.101 137.479 424.234 134.56 424.198 Z " fill="rgb(243,116,68)"/><path d=" M 151.958 475.815 C 151.017 478.842 151.752 479.352 148.782 481.978 C 145.811 484.603 147.556 488.031 147.579 490.037 C 147.538 491.596 146.616 494.538 147.7 497.262 C 148.65 499.737 150.58 501.71 153.032 502.714 C 159.016 505.247 165.842 504.823 171.466 501.569 C 178.391 497.572 182.373 494.31 179.91 486.807 C 177.448 479.304 173.169 472.434 169.113 470.437 C 166.987 469.076 164.287 468.984 162.074 470.198 C 159.891 471.33 158.073 470.454 155.515 472.188 C 152.956 473.921 152.614 473.649 151.958 475.815 Z " fill="rgb(243,116,68)"/><path d=" M 107.56 372.059 C 96.181 374.358 92.246 387.74 93.465 396.051 C 94.684 404.362 99.512 410.326 113.791 407.416 C 128.071 404.507 133.367 400.124 130.529 390.789 C 127.691 381.454 126.358 377.791 119.883 372.304 C 114.673 367.895 114.741 370.553 107.56 372.059 Z " fill="rgb(243,116,68)"/><path d=" M 188.146 398.064 C 184.507 400.015 178.466 402.287 176.733 406.762 C 175 411.236 177.099 410.936 176.427 415.278 C 175.754 419.62 178.262 422.057 179.684 427.83 C 181.106 433.603 187.894 434.488 191.7 433.112 C 195.507 431.737 199.676 433.37 204.708 428.57 C 209.74 423.769 208.739 418.972 209.957 416.307 C 212.023 411.451 212.928 406.181 212.601 400.914 C 212.263 394.969 204.277 394.694 200.636 395.405 C 194.894 396.49 193.412 395.258 188.146 398.064 Z " fill="rgb(129,202,156)"/><path d=" M 211.198 458.58 C 208.65 462.765 209.009 461.249 207.225 463.517 C 206.28 465.66 206.077 468.058 206.649 470.33 C 206.701 472.767 206.923 475.197 207.312 477.603 C 207.939 479.642 210.954 486.748 215.867 486.55 C 220.781 486.351 221.337 484.492 224.143 485.159 C 226.948 485.826 235.904 482.424 235.608 477.937 C 235.315 474.47 235.628 470.978 236.533 467.619 C 237.722 463.022 236.611 458.135 233.553 454.503 C 230.585 451.066 222.039 451.679 218.882 454.009 C 215.724 456.338 212.16 456.977 211.198 458.58 Z " fill="rgb(129,202,156)"/><path d=" M 166.808 354.064 C 164.067 359.953 161.271 358.063 163.485 368.765 C 165.699 379.467 172.939 382.963 183.539 379.815 C 194.14 376.667 199.193 375.455 198.306 366.473 C 197.941 362.687 195.889 359.429 193.463 354.921 C 191.037 350.412 189.52 344.797 183.04 346.371 C 176.56 347.946 169.785 347.662 166.808 354.064 Z " fill="rgb(129,202,156)"/></g></g><g><g><path d=" M 41.534 286.455 C 40.46 287.766 36.253 289.476 33.881 291.631 C 31.51 293.787 24.499 298.098 22.559 298.839 C 20.62 299.579 15.444 302.717 15.549 303.687 C 15.654 304.657 17.816 306.275 22.022 307.356 C 26.229 308.437 31.077 311.255 34.419 311.818 C 37.76 312.382 45.524 315.802 46.389 315.16 C 47.254 314.518 46.579 308.922 46.606 307.297 C 46.71 300.182 46.71 293.171 46.501 291.336 C 46.245 289.207 47.156 286.809 46.173 285.734 C 45.767 285.243 42.615 285.158 41.534 286.455 Z " fill="rgb(241,95,104)"/><path d=" M 35.716 321.391 C 31.529 320.041 26.989 318.698 26.117 318.37 C 25.246 318.043 22.776 317.944 22.664 319.347 C 22.553 320.749 23.634 321.502 24.82 322.793 C 26.006 324.084 27.303 327.537 28.489 330.341 C 29.675 333.145 33.128 341.126 34.196 342.423 C 35.264 343.72 34.386 343.819 36.817 345.653 C 38.651 347.055 38.546 345.116 44.024 340.477 C 49.502 335.838 54.154 330.557 56.204 329.804 C 58.255 329.05 58.249 328.493 57.928 327.648 C 57.607 326.803 53.289 325.814 52.103 325.276 C 50.917 324.739 39.379 322.577 35.716 321.391 Z " fill="rgb(241,95,104)"/></g></g><g><path d=" M -101.99 418.545 C -99.362 432.954 -90.094 479.801 -90.309 484.38 C -90.524 488.959 -86.425 541.361 -82.925 539.16 C -79.425 536.96 -56.262 518.848 -49.293 512.252 C -42.323 505.655 6.261 464.462 6.447 461.236 C 6.633 458.01 -39.643 443.652 -51.284 438.55 C -62.925 433.447 -102.714 414.572 -101.99 418.545 Z " fill="rgb(35,31,32)"/><path d=" M 11.603 465.537 C 11.19 466.737 0.381 477.682 -3.397 480.527 C -5.636 482.223 -10.609 486.882 -16.913 492.271 C -21.109 495.849 -25.972 499.331 -30.764 504.013 C -36.094 509.26 -54.056 524.86 -60.086 530.032 C -66.117 535.204 -71.01 538.735 -76.896 543.316 C -79.199 545.128 -81.038 541.462 -78.699 539.537 C -76.361 537.612 -65.365 529 -57.581 522.347 C -49.798 515.694 -32.246 501.974 -29.385 497.961 C -26.524 493.948 -22.268 492.394 -19.607 490.403 C -16.947 488.411 -2.294 475.604 -0.498 473.565 C 1.836 471.028 4.364 468.678 7.064 466.535 C 11.594 463.126 12.24 463.726 11.603 465.537 Z " fill="rgb(35,31,32)"/></g><g><path d=" M 252.84 303.932 C 221.078 292.531 186.006 259.638 170.246 204.912 C 154.486 150.186 178.5 144.092 196.479 146.393 C 214.459 148.693 252.053 135.879 269.326 143.386 C 286.6 150.893 327.846 174.179 337.653 193.693 C 347.46 213.206 353.454 267.892 332.427 283.611 C 311.4 299.331 282.12 314.445 252.84 303.932 Z " fill="rgb(244,196,198)"/><path d=" M 338.424 188.499 C 343.839 184.818 354.004 185.839 357.638 188.499 C 361.272 191.159 363.932 191.8 365.262 197.762 C 366.592 203.723 367.922 209.043 364.597 213.342 C 361.272 217.641 357.97 223.958 348.708 224.623 C 339.445 225.288 331.797 222.248 330.135 217.973 C 328.472 213.698 330.135 209.376 330.135 205.386 C 329.548 198.654 332.739 192.152 338.424 188.499 L 338.424 188.499 Z " fill="rgb(255,242,0)"/><path d=" M 319.875 229.92 C 324.174 233.91 333.46 233.554 332.795 239.42 C 332.13 245.286 332.795 252.031 328.805 258.99 C 324.815 265.949 318.212 271.578 314.222 270.865 C 310.232 270.153 301.302 265.902 297.597 259.94 C 293.892 253.979 290.971 252.981 298.594 238.399 C 306.218 223.816 315.22 225.597 319.875 229.92 Z " fill="rgb(255,242,0)"/><path d=" M 290.044 270.01 C 300.637 272.385 300.969 280.627 299.331 287.253 C 297.692 293.88 296.338 290.554 293.346 296.516 C 290.353 302.477 280.758 299.508 277.124 299.176 C 273.49 298.843 271.139 295.542 265.249 294.426 C 259.359 293.31 260.618 285.139 263.61 280.176 C 266.603 275.212 270.878 267.16 274.868 266.258 C 286.387 263.717 282.943 268.467 290.044 270.01 Z " fill="rgb(255,242,0)"/></g><g><path d=" M 10.01 86.535 C 5.894 85.082 2.759 81.694 1.626 77.479 C 0.02 72.315 -0.318 66.966 -1.764 61.841 C -3.113 57.094 -4.464 52.337 -5.842 47.596 C -7.601 41.576 -9.606 35.605 -11.125 29.515 C -12.491 24.078 -13.353 18.508 -14.409 12.988 C -15.032 9.911 -15.763 6.855 -16.276 3.765 C -16.553 2.098 -16.643 0.405 -16.543 -1.282 C -16.481 -2.386 -15.557 -2.961 -14.61 -2.163 C -13.181 -0.953 -11.485 -0.082 -10.717 1.946 C -9.815 4.176 -8.667 6.298 -7.294 8.273 C -5.203 11.441 -5.008 15.125 -4.176 18.63 C -3.063 23.271 -2.281 27.99 -1.023 32.592 C 0.56 38.597 2 44.703 4.249 50.471 C 6.394 56.026 7.03 61.835 8.412 67.504 C 9.582 72.277 9.965 77.239 12.021 81.802 C 12.199 82.243 12.193 82.737 12.003 83.173 C 11.374 84.351 10.649 85.457 10.01 86.535 Z " fill="rgb(129,202,156)"/><path d=" M 15.917 64.158 C 14.702 59.517 13.587 54.815 12.221 50.184 C 11.193 46.719 9.575 43.414 8.723 39.913 C 7.416 34.515 6.517 29.015 5.482 23.551 C 4.906 20.403 4.438 17.233 4.062 14.065 C 4.035 12.773 4.087 11.482 4.217 10.197 C 4.22 9.859 3.847 9.527 3.838 9.182 C 3.827 8.47 3.679 7.49 4.049 7.098 C 4.672 6.76 5.415 6.722 6.069 6.996 C 6.657 7.415 7.124 7.982 7.422 8.64 C 10.271 13.338 10.921 18.716 12.11 23.934 C 13.16 28.516 14.193 33.113 15.437 37.646 C 16.681 42.179 18.223 46.367 19.459 50.759 C 20.469 54.238 21.246 57.774 22.18 61.278 C 22.709 63.283 23.259 65.294 23.914 67.273 C 24.4 68.715 23.791 69.686 22.83 70.635 C 21.869 71.585 21.114 70.778 20.274 70.357 C 17.712 69.09 16.888 66.635 15.917 64.158 Z " fill="rgb(129,202,156)"/><path d=" M 22.629 14.713 C 23.794 15.961 24.829 17.324 25.718 18.781 C 26.333 20.339 26.749 21.969 26.955 23.632 C 27.299 25.328 27.516 27.059 27.793 28.778 C 28.07 30.497 28.246 32.125 28.658 33.755 C 29.61 37.501 30.717 41.205 31.699 44.945 C 32.823 49.237 34.047 53.519 34.898 57.877 C 35.347 60.092 33.416 61.238 31.448 60.085 C 29.448 59.123 27.995 57.304 27.498 55.141 C 26.106 49.525 23.936 44.098 22.456 38.5 C 21.186 33.399 20.719 28.13 21.07 22.885 C 21.141 21.56 21.091 20.231 20.919 18.916 C 20.563 17.296 21.243 15.624 22.629 14.713 Z " fill="rgb(129,202,156)"/><path d=" M 35.431 11.927 C 36.435 12.398 37.718 12.587 38.168 13.302 C 39.432 15.125 40.401 17.136 41.038 19.261 C 42.796 26.23 44.309 33.25 45.834 40.277 C 46.399 42.853 46.828 45.456 47.117 48.077 C 47.401 50.591 46.114 51.086 43.753 50.462 C 40.776 49.667 40.112 47.598 39.671 45.167 C 38.344 37.906 36.997 30.649 35.741 23.384 C 35.359 21.125 35.132 18.842 35.062 16.553 C 35.083 15.004 35.207 13.459 35.431 11.927 L 35.431 11.927 Z " fill="rgb(129,202,156)"/><path d=" M 56.464 27.371 C 57.456 32.272 58.517 37.158 59.382 42.085 C 59.469 43.068 59.16 44.045 58.523 44.799 C 57.798 45.65 56.908 44.983 55.961 44.542 C 51.601 42.507 50.926 38.419 50.348 34.455 C 49.858 30.283 49.608 26.085 49.599 21.884 C 49.573 21.155 50.212 19.872 50.743 19.775 C 51.703 19.639 52.671 19.956 53.365 20.632 C 54.774 22.652 56.679 27.276 56.464 27.371 Z " fill="rgb(129,202,156)"/></g></g></svg>