<?xml version="1.0" standalone="no"?><!-- Generator: Gravit.io --><svg xmlns="http://www.w3.org/2000/svg" xmlns:xlink="http://www.w3.org/1999/xlink" style="isolation:isolate" viewBox="0 0 1280 1024" width="1280" height="1024"><defs><clipPath id="_clipPath_AKyZswZyEsbZPf5s2iuP05mOczaO50PA"><rect width="1280" height="1024"/></clipPath></defs><g clip-path="url(#_clipPath_AKyZswZyEsbZPf5s2iuP05mOczaO50PA)"><path d=" M 0 1024 L 1280 1024 L 1280 0.001 L 0 0.001 L 0 1024 Z " fill="rgb(0,0,0)"/><path d=" M 1219.057 130.547 L 1225.625 160.133 L 1181.058 152.292 L 1219.057 130.547 Z " fill="rgb(95,198,244)"/><path d=" M 1188.677 942.928 L 1203.711 969.242 L 1158.821 974.949 L 1188.677 942.928 Z " fill="rgb(95,198,244)"/><path d=" M 1085.576 859.821 L 1096.673 831.619 L 1129.238 863.039 L 1085.576 859.821 Z " fill="rgb(212,47,129)"/><path d=" M 1016.525 98.898 L 1013.566 68.737 L 1056.866 81.886 L 1016.525 98.898 Z " fill="rgb(212,47,129)"/><path d=" M 943.663 244.829 L 940.704 214.667 L 984.004 227.817 L 943.663 244.829 Z " fill="none" vector-effect="non-scaling-stroke" stroke-width="4" stroke="rgb(255,155,66)" stroke-linejoin="miter" stroke-linecap="square" stroke-miterlimit="3"/><path d=" M 1188.238 375.677 L 1218.444 373.205 L 1204.595 416.287 L 1188.238 375.677 Z " fill="rgb(212,47,129)"/><path d=" M 962.173 681.344 L 989.583 668.417 L 991.757 713.617 L 962.173 681.344 Z " fill="none" vector-effect="non-scaling-stroke" stroke-width="4" stroke="rgb(255,155,66)" stroke-linejoin="miter" stroke-linecap="square" stroke-miterlimit="3"/><path d=" M 829.365 112.261 L 800.995 101.6 L 831.91 68.554 L 829.365 112.261 Z " fill="none" vector-effect="non-scaling-stroke" stroke-width="4" stroke="rgb(255,155,66)" stroke-linejoin="miter" stroke-linecap="square" stroke-miterlimit="3"/><path d=" M 676.844 242.898 L 673.885 212.737 L 717.185 225.886 L 676.844 242.898 Z " fill="rgb(95,198,244)"/><path d=" M 654.839 678.01 L 627.466 691.017 L 625.161 645.823 L 654.839 678.01 Z " fill="rgb(212,47,129)"/><path d=" M 816.142 756.008 L 785.85 755.103 L 804.407 713.829 L 816.142 756.008 Z " fill="rgb(95,198,244)"/><path d=" M 873.44 930.761 L 855.748 955.367 L 831.911 916.903 L 873.44 930.761 Z " fill="none" vector-effect="non-scaling-stroke" stroke-width="4" stroke="rgb(255,155,66)" stroke-linejoin="miter" stroke-linecap="square" stroke-miterlimit="3"/><path d=" M 588.111 81.256 L 606.112 105.637 L 562.193 116.54 L 588.111 81.256 Z " fill="rgb(212,47,129)"/><path d=" M 728.628 359.462 L 746.629 383.843 L 702.709 394.746 L 728.628 359.462 Z " fill="rgb(212,47,129)"/><path d=" M 505.723 337.708 L 502.764 307.547 L 546.064 320.696 L 505.723 337.708 Z " fill="none" vector-effect="non-scaling-stroke" stroke-width="4" stroke="rgb(255,155,66)" stroke-linejoin="miter" stroke-linecap="square" stroke-miterlimit="3"/><path d=" M 425.537 770.948 L 430.611 741.07 L 468.931 765.139 L 425.537 770.948 Z " fill="none" vector-effect="non-scaling-stroke" stroke-width="4" stroke="rgb(255,155,66)" stroke-linejoin="miter" stroke-linecap="square" stroke-miterlimit="3"/><path d=" M 627.407 843.912 L 648.32 865.846 L 606.113 882.165 L 627.407 843.912 Z " fill="rgb(212,47,129)"/><path d=" M 468.931 974.206 L 479.089 945.652 L 512.676 975.979 L 468.931 974.206 Z " fill="rgb(95,198,244)"/><path d=" M 168.829 184.123 L 179.925 155.922 L 212.492 187.342 L 168.829 184.123 Z " fill="rgb(95,198,244)"/><path d=" M 319.406 329.197 L 292.115 316.018 L 325.887 285.898 L 319.406 329.197 Z " fill="rgb(212,47,129)"/><path d=" M 259.714 701.709 L 256.755 671.547 L 300.054 684.697 L 259.714 701.709 Z " fill="rgb(95,198,244)"/><path d=" M 278.404 903.862 L 305.815 890.935 L 307.988 936.135 L 278.404 903.862 Z " fill="rgb(212,47,129)"/><path d=" M 68.5 81.345 L 40.015 91.694 L 42.013 46.485 L 68.5 81.345 Z " fill="rgb(212,47,129)"/><path d=" M 86.796 322.628 L 83.837 292.466 L 127.137 305.616 L 86.796 322.628 Z " fill="none" vector-effect="non-scaling-stroke" stroke-width="4" stroke="rgb(255,155,66)" stroke-linejoin="miter" stroke-linecap="square" stroke-miterlimit="3"/><path d=" M 83.552 649.443 L 103.386 672.358 L 60.443 686.629 L 83.552 649.443 Z " fill="rgb(212,47,129)"/><path d=" M 264.377 90.408 L 261.418 60.246 L 304.718 73.396 L 264.377 90.408 Z " fill="none" vector-effect="non-scaling-stroke" stroke-width="4" stroke="rgb(255,155,66)" stroke-linejoin="miter" stroke-linecap="square" stroke-miterlimit="3"/><path d=" M 408.072 154.606 L 437.959 149.582 L 427.814 193.682 L 408.072 154.606 Z " fill="rgb(95,198,244)"/><path d=" M 969.926 360.123 L 981.022 331.922 L 1013.588 363.342 L 969.926 360.123 Z " fill="rgb(95,198,244)"/><path d=" M 82.127 470.848 L 63.556 494.798 L 41.125 455.495 L 82.127 470.848 Z " fill="rgb(95,198,244)"/><path d=" M 132.486 877.064 L 103.386 885.53 L 108.333 840.548 L 132.486 877.064 Z " fill="none" vector-effect="non-scaling-stroke" stroke-width="4" stroke="rgb(255,155,66)" stroke-linejoin="miter" stroke-linecap="square" stroke-miterlimit="3"/><path d=" M 1170.332 609.462 L 1188.333 633.843 L 1144.413 644.746 L 1170.332 609.462 Z " fill="rgb(95,198,244)"/><g transform="matrix(4.5,0,0,4.5,171.6,466.708)"><text transform="matrix(1,0,0,1,0,15.712)" style="font-family:'Overpass ExtraBold';font-weight:400;font-size:16px;font-style:normal;font-variant-ligatures:none;letter-spacing:0.04499999999999993;fill:[Object GRGBColor];stroke:none;">S</text><text transform="matrix(1,0,0,1,9.885,15.712)" style="font-family:'Overpass ExtraBold';font-weight:400;font-size:16px;font-style:normal;font-variant-ligatures:none;fill:[Object GRGBColor];stroke:none;">T</text><text transform="matrix(1,0,0,1,19.565,15.712)" style="font-family:'Overpass ExtraBold';font-weight:400;font-size:16px;font-style:normal;font-variant-ligatures:none;letter-spacing:0.045000000000001705;fill:[Object GRGBColor];stroke:none;">O</text><text transform="matrix(1,0,0,1,31.242,15.712)" style="font-family:'Overpass ExtraBold';font-weight:400;font-size:16px;font-style:normal;font-variant-ligatures:none;letter-spacing:0.02;fill:[Object GRGBColor];stroke:none;">P CHECKING, MICHELE</text></g></g></svg>